<?xml version="1.0" encoding="UTF-8"?>
<svg width="800" height="600" viewBox="0 0 800 600" fill="none" xmlns="http://www.w3.org/2000/svg">
    <!-- Background -->
    <rect width="800" height="600" fill="#F8FAFC"/>
    
    <!-- Meeting Table -->
    <rect x="100" y="300" width="600" height="200" rx="20" fill="#E2E8F0"/>
    <rect x="150" y="320" width="500" height="160" rx="10" fill="#FFFFFF"/>
    
    <!-- People Silhouettes -->
    <g transform="translate(200, 250)">
        <circle r="40" fill="#4A6CF7"/>
        <rect x="-25" y="40" width="50" height="80" rx="10" fill="#4A6CF7"/>
    </g>
    
    <g transform="translate(400, 250)">
        <circle r="40" fill="#6366F1"/>
        <rect x="-25" y="40" width="50" height="80" rx="10" fill="#6366F1"/>
    </g>
    
    <g transform="translate(600, 250)">
        <circle r="40" fill="#4A6CF7"/>
        <rect x="-25" y="40" width="50" height="80" rx="10" fill="#4A6CF7"/>
    </g>
    
    <!-- Laptop -->
    <rect x="350" y="350" width="100" height="80" rx="5" fill="#2D3748"/>
    <rect x="360" y="360" width="80" height="50" fill="#FFFFFF"/>
    
    <!-- Coffee Cup -->
    <circle cx="250" cy="380" r="15" fill="#4A6CF7"/>
    <rect x="240" y="370" width="20" height="25" rx="5" fill="#4A6CF7"/>
    
    <!-- Notes -->
    <rect x="550" y="370" width="80" height="60" rx="5" fill="#E2E8F0"/>
    <rect x="560" y="380" width="60" height="5" rx="2" fill="#94A3B8"/>
    <rect x="560" y="390" width="40" height="5" rx="2" fill="#94A3B8"/>
    <rect x="560" y="400" width="50" height="5" rx="2" fill="#94A3B8"/>
</svg> 