<?xml version="1.0" encoding="UTF-8"?>
<svg width="800" height="600" viewBox="0 0 800 600" fill="none" xmlns="http://www.w3.org/2000/svg">
    <!-- Monitor -->
    <rect x="300" y="100" width="400" height="300" rx="10" fill="#2D3748"/>
    <rect x="320" y="120" width="360" height="240" fill="#FFFFFF"/>
    <rect x="340" y="140" width="100" height="20" rx="4" fill="#4A6CF7"/>
    <rect x="340" y="170" width="320" height="10" rx="2" fill="#E2E8F0"/>
    <rect x="340" y="190" width="280" height="10" rx="2" fill="#E2E8F0"/>
    
    <!-- Mobile Device -->
    <rect x="100" y="150" width="150" height="250" rx="20" fill="#2D3748"/>
    <rect x="110" y="170" width="130" height="210" fill="#FFFFFF"/>
    <circle cx="175" cy="160" r="5" fill="#4A6CF7"/>
    
    <!-- Icons -->
    <circle cx="200" y="50" r="30" fill="#4A6CF7" opacity="0.9"/>
    <circle cx="600" y="450" r="25" fill="#6366F1" opacity="0.8"/>
    <circle cx="150" y="400" r="35" fill="#4A6CF7" opacity="0.7"/>
    
    <!-- Tech Icons -->
    <g transform="translate(400, 400)">
        <circle r="20" fill="#FF4154"/> <!-- React -->
        <text x="-10" y="7" fill="white" font-family="Arial" font-size="20">⚛</text>
    </g>
    <g transform="translate(450, 420)">
        <circle r="20" fill="#61DAFB"/> <!-- Node -->
        <text x="-10" y="7" fill="white" font-family="Arial" font-size="20">⬢</text>
    </g>
    <g transform="translate(500, 400)">
        <circle r="20" fill="#38B2AC"/> <!-- Database -->
        <text x="-10" y="7" fill="white" font-family="Arial" font-size="20">🗄</text>
    </g>
    
    <!-- Connecting Lines -->
    <path d="M 200 50 Q 300 100 400 50" stroke="#4A6CF7" stroke-width="2" opacity="0.5"/>
    <path d="M 600 450 Q 500 400 400 450" stroke="#6366F1" stroke-width="2" opacity="0.5"/>
    <path d="M 150 400 Q 250 350 350 400" stroke="#4A6CF7" stroke-width="2" opacity="0.5"/>
</svg> 